# xmcd
# 
# Track frame offsets:
#     150
#     12722
#     38740
#     57160
#     77695
#     91385
#     116085
#     134600
#     144717
#     163195
#     178207
#     198865
#     215537
# 
# Disc length: 3100
# 
# Revision: 3
# Processed by: cddbd v1.5.2PL0 Copyright (c) Steve Scherf et al.
# Submitted via: BonkEnc v1.0
# 
DISCID=c00c1a0d
DTITLE=Blues Company - Vintage
DYEAR=1995
DGENRE=Blues
TTITLE0=Gotta Getcha
TTITLE1=Cold Rain
TTITLE2=Blue And Lonesome
TTITLE3=It's Allright
TTITLE4=Someone To Love
TTITLE5=Waiting For You
TTITLE6=Rich Man's Blues
TTITLE7=Alcohol
TTITLE8=Riot In Cell Block #9
TTITLE9=Gotta Get Loaded
TTITLE10=Georgia On My Mind
TTITLE11=Taxi
TTITLE12=Walk On
EXTD=
EXTT0=
EXTT1=
EXTT2=
EXTT3=
EXTT4=
EXTT5=
EXTT6=
EXTT7=
EXTT8=
EXTT9=
EXTT10=
EXTT11=
EXTT12=
PLAYORDER=
